<?xml version="1.0" encoding="UTF-8"?>
<svg width="150px" height="28px" viewBox="0 0 150 28" version="1.1" xmlns="http://www.w3.org/2000/svg" xmlns:xlink="http://www.w3.org/1999/xlink">
    <title>Logo/Ponicode/Mark + Ponicode White</title>
    <defs>
        <path d="M21.8918588,6.53443905 L21.8918588,13.2762951 C21.8918588,14.7254798 21.386483,16.1116566 20.5020735,17.2458003 C19.9966963,17.8128729 19.4281467,18.3799439 18.7332548,18.7579929 C17.7856728,19.3250639 16.5854035,19.6401036 15.511478,19.6401036 L15.448307,19.6401036 L15.321962,19.6401036 L6.79373089,19.6401036 C5.78297751,19.6401036 4.83539628,19.4510799 3.9509872,19.0100244 C1.6136201,18.0018966 0.16066228,15.7336076 0.16066228,13.2762951 L0.16066228,6.53443905 C0.16066228,6.09338227 0.223834425,5.71533499 0.28700638,5.27427954 C0.28700638,5.27427954 0.28700638,5.27427954 0.28700638,5.21127176 C0.666039062,3.4470475 1.80313635,1.93485476 3.38243846,0.989734755 C3.38243846,0.989734755 3.38243827,0.989734755 3.44561042,0.989734755 C4.39319165,0.422662218 5.59346146,0.107622721 6.79373089,0.107622721 L15.321962,0.107622721 C18.9859433,0.107622721 21.8918588,3.00599072 21.8918588,6.53443905 Z" id="path-1"/>
    </defs>
    <g id="Page-1" stroke="none" stroke-width="1" fill="none" fill-rule="evenodd">
        <g id="Desktop-/-Jobs" transform="translate(-202.000000, -54.000000)">
            <g id="TOPBAR" transform="translate(202.000000, 43.000000)">
                <g id="Logo/Ponicode/2.-Mark-+-Ponicode-Blue" transform="translate(0.000000, 11.000000)">
                    <g id="Logo/Ponicode/1.-Mark">
                        <g id="Group-428" stroke-width="1" transform="translate(0.190304, 7.595487)">
                            <mask id="mask-2" fill="white">
                                <use xlink:href="#path-1"/>
                            </mask>
                            <use id="Fill-424" fill="#3FC93F" xlink:href="#path-1"/>
                            <path d="M12.7669954,19.7381243 L7.46054088,19.7381243 C6.44978712,19.7381243 5.50220589,19.5491006 4.55462466,19.1080445 L1.58553668,16.2096758 C1.0801599,15.3275637 0.827471504,14.3194358 0.827471504,13.2482992 L0.827471504,9.7828587 C0.827471504,9.34180268 0.89064365,8.96375445 0.953815605,8.52269843 L12.7669954,19.7381243 Z" id="Fill-425" fill="#FF475A" mask="url(#mask-2)"/>
                            <path d="M19.0842202,18.7930058 C18.1366382,19.3600768 16.9995417,19.6751165 15.8624436,19.6751165 L15.7992724,19.6751165 L15.6729276,19.6751165 L12.5143241,19.6751165 L0.511629237,8.52269995 C0.890661729,6.75847569 2.0277592,5.24628315 3.60706113,4.30116314 L19.0842202,18.7930058 Z" id="Fill-426" fill="#FF9F36" mask="url(#mask-2)"/>
                            <path d="M21.9269704,14.5084544 C21.7374543,15.4535744 21.2952481,16.3986951 20.6635273,17.1547914 C20.1581514,17.7218626 19.6922526,18.351054 18.9973592,18.7291015 L3.67023765,4.49018232 C4.68099103,3.92310978 5.8180885,3.60807029 7.01835831,3.60807029 L10.2401337,3.60807029 L21.9269704,14.5084544 Z" id="Fill-427" fill="#FFE944" mask="url(#mask-2)"/>
                        </g>
                        <polygon id="Fill-429" fill="#FFFFFF" points="6.88578117 22.7480214 6.50674887 27.2845992 3.15862916 26.0244382 0.694917959 22.7480214 0.694917959 16.9512855 1.13712241 10.650485 3.3481454 8.9492687 3.79034985 5.98789273 5.43282411 4.41269221 6.88578117 5.23179797 7.95970669 6.42894817 13.1398169 0.380180649 14.466431 1.38830996 12.065892 9.26430953 16.487937 14.1159255 18.5726155 18.0224213 17.3723465 20.9837986 14.0242262 22.4329819 9.22314827 20.7947749 7.4543301 20.6687576"/>
                        <path d="M4.61156224,7.49991437 C5.36962703,7.18487488 6.12769202,6.93284317 6.94892896,6.80682589 C7.01210148,6.80682589 7.01210148,6.7438181 7.01210148,6.68081012 C6.82258543,6.30276132 6.69624114,5.92471385 6.38038079,5.67268233 C6.06451987,5.42065062 5.74865914,5.42065062 5.49597094,5.67268233 C4.99059435,6.17674556 4.73790615,6.80682589 4.61156224,7.49991437 Z M13.3293097,1.82919432 C13.2029647,1.89220211 13.0766212,1.95521008 13.0134486,2.08122584 C12.6344163,2.45927331 12.3185552,2.90032857 11.9395231,3.27837756 C10.6760814,4.91658587 9.53898406,6.61780234 8.46505854,8.31901862 C8.40188678,8.44503438 8.33871425,8.50804236 8.1491982,8.50804236 C7.95968214,8.50804236 7.70699337,8.50804369 7.51747731,8.57105166 C4.29570151,8.88609116 1.83199031,11.5324274 1.89516246,14.6198205 L1.89516246,20.9836277 C1.89516246,21.424683 1.95833461,21.8027318 2.02150656,22.1807808 C2.40053924,24.0710208 3.7903253,25.3311803 5.74865953,25.520204 C5.93817596,25.520204 6.00134773,25.520204 6.00134773,25.3311803 C5.93817558,24.3860618 5.87500344,23.5039483 5.93817558,22.5588282 C6.00134735,21.9917555 6.06451968,21.4876923 6.25403574,20.9206197 C6.63306861,19.9754997 7.39113378,19.4084285 8.40188678,19.4084285 C8.90726394,19.4084285 9.41263977,19.5344458 9.91801713,19.6604616 C10.6760814,19.9124933 11.370974,20.3535485 12.1922117,20.6055803 C12.8871036,20.8576118 13.6451695,21.046637 14.4032339,20.9206197 C15.2876432,20.794604 15.9825366,20.3535485 16.67743,19.786476 C17.6250105,19.0303797 17.8776991,18.0852611 17.6250105,17.014124 C17.4354944,16.1950197 17.0564621,15.4389234 16.5510863,14.7458349 C15.1612997,12.6035634 13.3293097,10.8393392 11.3709748,9.20113065 C11.2446305,9.07511489 11.1814579,9.01210692 11.2446305,8.82308318 C11.4341465,8.12999337 11.6236626,7.4369064 11.8763514,6.80682589 C12.3185552,5.35764264 12.8871051,3.97146586 13.3293097,2.52228129 C13.2661372,2.27024958 13.3293097,2.08122584 13.3293097,1.82919432 Z M7.64382237,27.2844283 C7.01210148,27.2844283 6.38038079,27.2844283 5.74865953,27.2844283 C2.77957193,27.0954046 0.568548738,25.2051645 0.126344101,22.3698045 C0.0631721454,21.8657398 -1.77137507e-13,21.4246845 -1.77137507e-13,20.9206197 L-1.77137507e-13,14.6198205 C-1.77137507e-13,12.2885237 0.884409085,10.3352744 2.71639959,8.76007388 C2.77957173,8.69706609 2.84274369,8.57105014 2.84274369,8.44503438 C2.90591584,7.4369064 3.09543189,6.49178506 3.53763672,5.60967436 C3.79032492,5.16861758 4.10618527,4.79057011 4.54838971,4.41252131 C5.4327988,3.78244212 6.56989608,3.8454501 7.39113378,4.66455283 C7.6438216,4.91658587 7.89651019,5.23162555 8.08602643,5.54666638 C8.52823107,4.91658587 8.90726337,4.34951333 9.28629624,3.78244212 C9.98118889,2.77431281 10.6760814,1.76618635 11.5604908,0.884072793 C11.7500071,0.632041272 12.0026956,0.443017536 12.3185568,0.317001585 C12.9502761,-0.0610487346 13.6451709,-0.12405652 14.3400627,0.2539938 C14.9717836,0.632041272 15.2244722,1.26212026 15.2244722,2.01821806 C15.1612997,2.71130503 14.9086111,3.34138535 14.719095,3.97146586 C14.2768902,5.29463334 13.7715146,6.61780234 13.3924823,7.94096963 C13.3924823,8.00397761 13.3293097,8.06698558 13.3293097,8.12999337 C13.2029647,8.25600932 13.2661372,8.38202641 13.3924823,8.50804236 C14.719095,9.70519389 15.9825366,10.9653549 17.0564621,12.2885237 C17.9408716,13.4226675 18.7621085,14.682827 19.2674844,16.0690039 C19.5833455,16.951116 19.646518,17.896236 19.3938294,18.778348 C19.2674857,19.4084285 18.9516246,19.9124933 18.5725925,20.4165565 C18.2567314,20.7946053 17.8776991,21.1096435 17.498667,21.4246845 C16.9301186,21.8657398 16.2983977,22.1807793 15.6035045,22.432811 C15.4771608,22.4958188 15.4139869,22.4958203 15.3508157,22.4958203 C13.8346856,22.8108613 12.4449003,22.5588296 11.0551144,21.991757 C10.6760821,21.8657413 10.2970492,21.6767145 9.91801713,21.487691 C9.60215659,21.424683 9.4758123,21.4246845 9.09677943,21.2356608 C9.03360766,21.2356608 8.9704359,21.1726513 8.90726394,21.1726513 C8.27554325,20.9836262 8.02285467,21.1726513 7.89651019,21.8027305 C7.83333842,22.1177715 7.7701659,22.432811 7.7701659,22.7478518 C7.70699413,24.1340272 7.7701659,25.520204 8.02285467,26.8433728 C8.08602643,27.2844283 8.086027,27.2844283 7.64382237,27.2844283 Z" id="Fill-430" fill="#0F1245"/>
                        <path d="M10.0443822,15.6281165 C10.0443822,15.3760846 9.85486592,15.2500696 9.60217771,15.2500696 C9.41266147,15.2500696 9.2231456,15.3760846 9.2231456,15.6281165 C9.2231456,15.8171407 9.41266147,16.0061652 9.60217771,16.0061652 C9.85486592,16.0061652 10.0443822,15.8171407 10.0443822,15.6281165 Z M10.3602425,13.6748695 C10.3602425,13.1708055 9.91803825,12.7297495 9.3494897,12.7297495 C8.84411292,12.7297495 8.46508005,13.1077972 8.46508005,13.6118612 C8.46508005,14.1159255 8.90728488,14.5569815 9.47583361,14.5569815 C9.91803806,14.5569815 10.2970704,14.1789333 10.3602425,13.6748695 Z M9.41266128,11.9106445 C10.3602425,11.9736525 11.2446512,12.4777174 11.8763721,13.3598292 C12.4449206,14.0529175 12.6976096,14.8090131 12.6344375,15.6911249 C12.5080932,16.9512852 11.434168,17.6443733 10.1075547,17.5183569 C8.40190828,17.266325 6.94895084,15.6281177 7.0121228,13.9899096 C7.07529494,12.7297495 7.95970365,11.9106445 9.41266128,11.9106445 Z" id="Fill-431" fill="#0F1245"/>
                        <path d="M15.4139715,17.1403119 C15.7930038,17.1403119 16.1088642,17.4553507 16.1088642,17.8333983 C16.1088642,18.2114458 15.7930038,18.5264859 15.4139715,18.5264859 C15.4139715,18.5264859 15.4139713,18.5264859 15.3507992,18.5264859 C14.9717671,18.5264859 14.6559079,18.211447 14.6559079,17.7703913 C14.782252,17.4553516 15.0349394,17.1403119 15.4139715,17.1403119 Z" id="Fill-432" fill="#0F1245"/>
                    </g>
                    <path d="M35.1708984,19.9596484 L35.1708984,27.2463672 L30.0779297,27.2463672 L30.0779297,5.38621094 L37.7669922,5.38621094 C39.2650391,5.38621094 40.6630859,5.58582031 41.7615234,5.88542969 C42.8599609,6.18464844 43.7587891,6.78386719 44.4576172,7.38269531 C45.1568359,7.98152344 45.6560547,8.77996094 46.0556641,9.67839844 C46.3548828,10.5768359 46.5548828,11.4752734 46.5548828,12.4733203 C46.5548828,13.5713672 46.3548828,14.5694141 46.0556641,15.4678516 C45.7560547,16.3662891 45.1568359,17.1647266 44.4576172,17.7639453 C43.7587891,18.4623828 42.8599609,18.9616016 41.7615234,19.2608203 C40.6630859,19.6600391 39.3650391,19.7600391 37.8669922,19.7600391 L35.1708984,19.7600391 L35.1708984,19.9596484 Z M35.1708984,16.1666797 L37.7669922,16.1666797 C39.0654297,16.1666797 40.0638672,15.8670703 40.6630859,15.2682422 C41.2623047,14.6694141 41.5619141,13.7709766 41.5619141,12.6729297 C41.5619141,12.1737109 41.4619141,11.6748828 41.3623047,11.2756641 C41.2623047,10.8764453 40.9626953,10.4768359 40.6630859,10.1776172 C40.3634766,9.87800781 39.9642578,9.67839844 39.4650391,9.47878906 C38.9654297,9.27917969 38.4662109,9.27917969 37.7669922,9.27917969 L35.1708984,9.27917969 L35.1708984,16.1666797 Z" id="Fill-1" fill="#0F1245"/>
                    <path d="M54.1440625,11.4751562 C55.3421094,11.4751562 56.4405469,11.6747656 57.339375,12.074375 C58.3382031,12.4732031 59.1370312,12.9724219 59.8358594,13.67125 C60.5350781,14.3700781 61.0342969,15.1685156 61.4339062,16.1665625 C61.833125,17.165 62.0327344,18.2626562 62.0327344,19.4607031 C62.0327344,20.6583594 61.833125,21.8564062 61.4339062,22.8544531 C61.0342969,23.8525 60.5350781,24.6513281 59.8358594,25.3497656 C59.1370312,26.0485938 58.3382031,26.5474219 57.339375,26.9470313 C56.3409375,27.34625 55.3421094,27.5458594 54.1440625,27.5458594 C52.945625,27.5458594 51.8471875,27.34625 50.9483594,26.9470313 C50.0499219,26.5474219 49.1510938,26.0485938 48.4522656,25.3497656 C47.7530469,24.6513281 47.2538281,23.8525 46.8542187,22.8544531 C46.455,21.8564062 46.2553906,20.7583594 46.2553906,19.4607031 C46.2553906,18.2626562 46.455,17.165 46.8542187,16.1665625 C47.2538281,15.1685156 47.7530469,14.3700781 48.4522656,13.67125 C49.1510938,12.9724219 49.9499219,12.4732031 50.9483594,12.074375 C51.8471875,11.6747656 52.945625,11.4751562 54.1440625,11.4751562 M54.1440625,24.0525 C55.2425,24.0525 56.0413281,23.6528906 56.5405469,22.9540625 C57.0401562,22.155625 57.339375,21.0579688 57.339375,19.5603125 C57.339375,18.0634375 57.0401562,16.8653906 56.5405469,16.1665625 C56.0413281,15.4677344 55.2425,15.0689063 54.1440625,15.0689063 C53.045625,15.0689063 52.2467969,15.4677344 51.7475781,16.1665625 C51.2479687,16.965 50.9483594,18.0634375 50.9483594,19.5603125 C50.9483594,21.0579688 51.2479687,22.255625 51.7475781,22.9540625 C52.2467969,23.6528906 53.045625,24.0525 54.1440625,24.0525" id="Fill-4" fill="#0F1245"/>
                    <path d="M64.0300391,27.2464844 L64.0300391,11.675 L66.9261328,11.675 C67.2253516,11.675 67.4253516,11.7746094 67.6249609,11.8742187 C67.8245703,11.9742187 67.9245703,12.1738281 68.0245703,12.4734375 L68.3241797,13.3714844 C68.6233984,13.0722656 68.9230078,12.8726562 69.2226172,12.5734375 C69.5222266,12.3738281 69.9218359,12.1738281 70.2214453,11.9742187 C70.5210547,11.7746094 71.0202734,11.675 71.4194922,11.575 C71.8191016,11.475 72.3183203,11.475 72.8175391,11.475 C73.6167578,11.475 74.4151953,11.575 75.1144141,11.8742187 C75.8132422,12.1738281 76.3124609,12.5734375 76.8120703,13.0722656 C77.2112891,13.5714844 77.6108984,14.1703125 77.8105078,14.96875 C78.0101172,15.6675781 78.1101172,16.4660156 78.1101172,17.3644531 L78.1101172,27.2464844 L73.5167578,27.2464844 L73.5167578,17.3644531 C73.5167578,16.5660156 73.3167578,15.9671875 73.0171484,15.5679687 C72.7179297,15.1683594 72.1187109,14.96875 71.5194922,14.96875 C71.0202734,14.96875 70.5210547,15.06875 70.1214453,15.2683594 C69.6222266,15.4679687 69.2226172,15.7671875 68.8233984,16.1667969 L68.8233984,27.2464844 L64.0300391,27.2464844 Z" id="Fill-6" fill="#0F1245"/>
                    <path d="M86.0988281,7.48234375 C86.0988281,7.8815625 85.9988281,8.18117187 85.8988281,8.48078125 C85.7992187,8.78 85.4996094,9.07960937 85.3,9.37882812 C85.0003906,9.5784375 84.7007812,9.77804687 84.4011719,9.97804687 C84.1019531,10.0776562 83.7019531,10.1772656 83.3027344,10.1772656 C82.903125,10.1772656 82.6039062,10.0776562 82.2042969,9.97804687 C81.9050781,9.87804687 81.6050781,9.6784375 81.3054687,9.37882812 C81.00625,9.17921875 80.80625,8.88 80.70625,8.48078125 C80.60625,8.18117187 80.5070312,7.78195312 80.5070312,7.48234375 C80.5070312,7.083125 80.60625,6.78351562 80.70625,6.38429687 C80.80625,6.08507812 81.00625,5.78546875 81.3054687,5.48625 C81.6050781,5.18664062 81.8050781,5.08664062 82.2042969,4.88703125 C82.6039062,4.68742187 82.903125,4.68742187 83.3027344,4.68742187 C83.7019531,4.68742187 84.1019531,4.78742187 84.4011719,4.88703125 C84.7007812,4.98703125 85.0003906,5.18664062 85.3,5.48625 C85.5996094,5.68546875 85.7992187,5.98507812 85.8988281,6.38429687 C86.0988281,6.78351562 86.0988281,7.083125 86.0988281,7.48234375 L86.0988281,7.48234375 Z M80.90625,27.2464062 L85.5996094,27.2464062 L85.5996094,11.6745312 L80.90625,11.6745312 L80.90625,27.2464062 Z" id="Fill-8" fill="#0F1245"/>
                    <path d="M99.979375,15.3682813 C99.879375,15.5678906 99.679375,15.6678906 99.5797656,15.7671094 C99.4801563,15.8671094 99.2801563,15.9671094 98.9805469,15.9671094 C98.7809375,15.9671094 98.5813281,15.8671094 98.3813281,15.7671094 C98.1817188,15.6678906 97.9821094,15.5678906 97.7825,15.3682813 C97.5825,15.2682813 97.2832813,15.0686719 96.9832813,14.9690625 C96.6836719,14.8690625 96.2844531,14.7694531 95.7852344,14.7694531 C95.1860156,14.7694531 94.6867969,14.8690625 94.2875781,15.0686719 C93.8875781,15.2682813 93.4883594,15.5678906 93.28875,15.9671094 C92.98875,16.3663281 92.7895313,16.8655469 92.6895313,17.364375 C92.5895313,17.9635938 92.4899219,18.5624219 92.4899219,19.2608594 C92.4899219,20.758125 92.7895313,21.8561719 93.38875,22.6546094 C93.9875781,23.4534375 94.7864063,23.8526562 95.7852344,23.8526562 C96.2844531,23.8526562 96.7836719,23.7530469 97.0832813,23.6530469 C97.3832813,23.5530469 97.6825,23.3534375 97.8821094,23.2538281 C98.0821094,23.0542187 98.2817188,22.9542188 98.4813281,22.7546094 C98.6813281,22.6546094 98.8805469,22.5546094 99.1801563,22.5546094 C99.5797656,22.5546094 99.879375,22.6546094 99.979375,22.9542188 L101.377031,24.6514844 C100.878203,25.1503125 100.378594,25.6491406 99.879375,25.94875 C99.3801563,26.2483594 98.7809375,26.5475781 98.2813281,26.7475781 C97.6825,26.9471875 97.1832813,27.0467969 96.5840625,27.1464062 C95.9848438,27.2464062 95.485625,27.2464062 94.9864063,27.2464062 C93.9875781,27.2464062 93.08875,27.0467969 92.2899219,26.7475781 C91.3914844,26.3479687 90.6926563,25.8491406 89.9934375,25.1503125 C89.2942188,24.4514844 88.795,23.6530469 88.3957813,22.6546094 C87.9961719,21.6565625 87.7965625,20.5585156 87.7965625,19.2608594 C87.7965625,18.1628125 87.9961719,17.0651563 88.2957813,16.1667188 C88.595,15.1682812 89.0946094,14.3698438 89.7938281,13.6710156 C90.4926563,12.9721875 91.2914844,12.3733594 92.1903125,11.9745312 C93.08875,11.5749219 94.2875781,11.3753125 95.585625,11.3753125 C96.7836719,11.3753125 97.8821094,11.5749219 98.7809375,11.9745312 C99.679375,12.3733594 100.578203,12.9721875 101.277422,13.6710156 L99.979375,15.3682813 Z" id="Fill-11" fill="#0F1245"/>
                    <path d="M109.565703,11.4751562 C110.76375,11.4751562 111.862578,11.6747656 112.761016,12.074375 C113.759453,12.4732031 114.558281,12.9724219 115.2575,13.67125 C115.956328,14.3700781 116.455937,15.1685156 116.855156,16.1665625 C117.254766,17.165 117.454375,18.2626562 117.454375,19.4607031 C117.454375,20.6583594 117.254766,21.8564062 116.855156,22.8544531 C116.455937,23.8525 115.956328,24.6513281 115.2575,25.3497656 C114.558281,26.0485938 113.759453,26.5474219 112.761016,26.9470313 C111.762578,27.34625 110.76375,27.5458594 109.565703,27.5458594 C108.367266,27.5458594 107.268828,27.34625 106.37,26.9470313 C105.371562,26.5474219 104.572734,26.0485938 103.873906,25.3497656 C103.174687,24.6513281 102.675078,23.8525 102.275859,22.8544531 C101.87625,21.8564062 101.677031,20.7583594 101.677031,19.4607031 C101.677031,18.2626562 101.87625,17.165 102.275859,16.1665625 C102.675078,15.1685156 103.174687,14.3700781 103.873906,13.67125 C104.572734,12.9724219 105.371562,12.4732031 106.37,12.074375 C107.368828,11.6747656 108.466875,11.4751562 109.565703,11.4751562 M109.565703,24.0525 C110.664141,24.0525 111.462578,23.6528906 111.962187,22.9540625 C112.461406,22.155625 112.761016,21.0579688 112.761016,19.5603125 C112.761016,18.0634375 112.461406,16.8653906 111.962187,16.1665625 C111.462578,15.4677344 110.664141,15.0689063 109.565703,15.0689063 C108.466875,15.0689063 107.668437,15.4677344 107.168828,16.1665625 C106.669609,16.8653906 106.37,18.0634375 106.37,19.5603125 C106.37,21.0579688 106.669609,22.255625 107.168828,22.9540625 C107.668437,23.6528906 108.466875,24.0525 109.565703,24.0525" id="Fill-13" fill="#0F1245"/>
                    <path d="M130.336367,27.2464844 C130.036367,27.2464844 129.837148,27.1464844 129.637148,27.046875 C129.437539,26.946875 129.337539,26.7476563 129.237539,26.4480469 L128.83832,25.2503906 C128.538711,25.5496094 128.239102,25.8492188 127.839492,26.1484375 C127.540273,26.4480469 127.140664,26.6476563 126.741445,26.8472656 C126.341836,27.046875 125.942617,27.1464844 125.443398,27.2464844 C124.943789,27.3464844 124.54457,27.4460938 123.945352,27.4460938 C123.146523,27.4460938 122.347695,27.2464844 121.748477,26.946875 C121.049648,26.5476563 120.450039,26.0488281 119.95082,25.35 C119.451602,24.6511719 119.051992,23.8527344 118.752773,22.8542969 C118.453164,21.85625 118.353164,20.7582031 118.353164,19.4605469 C118.353164,18.2628906 118.552773,17.2644531 118.852773,16.2667969 C119.151992,15.2683594 119.651211,14.3699219 120.25043,13.6710938 C120.849648,12.9722656 121.548867,12.3734375 122.347695,11.9742188 C123.146523,11.575 124.045352,11.3753906 125.043789,11.3753906 C125.842617,11.3753906 126.541445,11.475 127.040664,11.7746094 C127.640273,11.9742188 128.139492,12.2738281 128.538711,12.6726563 L128.538711,4.78710938 L133.13207,4.78710938 L133.13207,27.2464844 L130.336367,27.2464844 Z M125.642617,23.9523438 C125.942617,23.9523438 126.242227,23.9523438 126.541445,23.8527344 C126.841445,23.7527344 127.040664,23.653125 127.340273,23.553125 C127.540273,23.453125 127.739883,23.2535156 128.039492,23.0542969 C128.239102,22.8542969 128.439102,22.6546875 128.63832,22.4550781 L128.63832,15.8671875 C128.239102,15.4679688 127.939492,15.1683594 127.540273,15.0683594 C127.140664,14.86875 126.741445,14.86875 126.242227,14.86875 C125.842617,14.86875 125.443398,14.96875 125.043789,15.1683594 C124.64418,15.3679688 124.34457,15.5679688 124.144961,15.9671875 C123.845352,16.3660156 123.645742,16.865625 123.545742,17.4644531 C123.445742,18.0632813 123.345742,18.7617188 123.345742,19.6601563 C123.345742,20.4585938 123.445742,21.1574219 123.545742,21.75625 C123.645742,22.3554688 123.845352,22.7546875 124.045352,23.1535156 C124.24457,23.453125 124.54457,23.7527344 124.843789,23.8527344 C124.943789,23.8527344 125.343398,23.9523438 125.642617,23.9523438 L125.642617,23.9523438 Z" id="Fill-15" fill="#0F1245"/>
                    <path d="M142.918359,11.4751562 C143.917188,11.4751562 144.915625,11.6747656 145.714453,11.974375 C146.613281,12.2735937 147.312109,12.7728125 147.911328,13.3716406 C148.510156,13.9704687 149.009766,14.7692969 149.308984,15.5677344 C149.608984,16.4661719 149.808594,17.4646094 149.808594,18.5622656 L149.808594,19.4607031 C149.808594,19.6603125 149.708984,19.8599219 149.608984,19.9595312 C149.508984,20.0595312 149.408984,20.1595313 149.308984,20.2591406 C149.209375,20.2591406 149.009766,20.3591406 148.810156,20.3591406 L139.822656,20.3591406 C140.022656,21.6567969 140.322266,22.5552344 141.021094,23.1540625 C141.620313,23.7528906 142.519141,24.0525 143.517578,24.0525 C144.016797,24.0525 144.516016,23.9525 144.915625,23.8525 C145.315234,23.7528906 145.614453,23.5528906 145.914063,23.4536719 C146.214063,23.2536719 146.513281,23.1540625 146.712891,23.0540625 C146.912891,22.9540625 147.212109,22.8544531 147.512109,22.8544531 C147.911328,22.8544531 148.110938,22.9540625 148.310938,23.2536719 L149.608984,24.9509375 C149.109766,25.4497656 148.610156,25.9485938 148.010938,26.2482031 C147.412109,26.5474219 146.912891,26.8470313 146.313281,27.0470313 C145.714453,27.2466406 145.115234,27.34625 144.516016,27.4458594 C143.917188,27.5458594 143.417578,27.5458594 142.818359,27.5458594 C141.720313,27.5458594 140.721484,27.34625 139.722656,27.0470313 C138.724609,26.6474219 137.925391,26.1485938 137.226563,25.4497656 C136.527734,24.7509375 135.928125,23.8525 135.528906,22.8544531 C135.129688,21.8564062 134.929688,20.6583594 134.929688,19.2607031 C134.929688,18.2626562 135.129688,17.2646094 135.428906,16.2665625 C135.828516,15.368125 136.327734,14.5692969 136.926953,13.8708594 C137.525781,13.1720312 138.424609,12.5732031 139.323438,12.1739844 C140.621484,11.6747656 141.720313,11.4751562 142.918359,11.4751562 M143.018359,14.6692969 C142.119531,14.6692969 141.420313,14.9689062 140.921484,15.4677344 C140.421875,15.9673437 140.122266,16.6657812 139.922656,17.6638281 L145.714453,17.6638281 C145.714453,17.2646094 145.714453,16.965 145.614453,16.5661719 C145.514453,16.1665625 145.315234,15.8673437 145.115234,15.6677344 C144.915625,15.368125 144.616016,15.1685156 144.316406,14.9689062 C143.917188,14.7692969 143.517578,14.6692969 143.018359,14.6692969" id="Fill-17" fill="#0F1245"/>
                </g>
            </g>
        </g>
    </g>
</svg>